<?xml version="1.0" encoding="UTF-8" standalone="no"?>
<svg
   xmlns:dc="http://purl.org/dc/elements/1.1/"
   xmlns:cc="http://creativecommons.org/ns#"
   xmlns:rdf="http://www.w3.org/1999/02/22-rdf-syntax-ns#"
   xmlns:svg="http://www.w3.org/2000/svg"
   xmlns="http://www.w3.org/2000/svg"
   xmlns:sodipodi="http://sodipodi.sourceforge.net/DTD/sodipodi-0.dtd"
   xmlns:inkscape="http://www.inkscape.org/namespaces/inkscape"
   width="327mm"
   height="184mm"
   viewBox="0 0 32700 18400"
   version="1.1"
   stroke-width="28.222"
   stroke-linejoin="round"
   xml:space="preserve"
   id="svg28"
   sodipodi:docname="pwm.svg"
   inkscape:version="1.0.2 (e86c870879, 2021-01-15)"><metadata
   id="metadata34"><rdf:RDF><cc:Work
       rdf:about=""><dc:format>image/svg+xml</dc:format><dc:type
         rdf:resource="http://purl.org/dc/dcmitype/StillImage" /></cc:Work></rdf:RDF></metadata><defs
   id="defs32" /><sodipodi:namedview
   pagecolor="#ffffff"
   bordercolor="#666666"
   borderopacity="1"
   objecttolerance="10"
   gridtolerance="10"
   guidetolerance="10"
   inkscape:pageopacity="0"
   inkscape:pageshadow="2"
   inkscape:window-width="1920"
   inkscape:window-height="991"
   id="namedview30"
   showgrid="false"
   inkscape:zoom="1.1848732"
   inkscape:cx="617.95276"
   inkscape:cy="347.71654"
   inkscape:window-x="0"
   inkscape:window-y="0"
   inkscape:window-maximized="1"
   inkscape:current-layer="svg28" />
 <path
   fill="rgb(255,255,255)"
   stroke="none"
   d="M 16339,18382 L -13,18382 -13,-13 32690,-13 32690,18382 16339,18382 Z"
   id="path2" />
 <path
   fill="none"
   stroke="rgb(179,179,179)"
   stroke-linejoin="round"
   d="M 16339,18015 L 641,18015 641,354 32036,354 32036,18015 16339,18015 Z"
   id="path4" />
 <path
   fill="none"
   stroke="rgb(0,0,0)"
   stroke-width="40"
   stroke-linejoin="round"
   stroke-dasharray="160,120"
   d="M 5350,18014 L 5350,353"
   id="path6" />
 <path
   fill="none"
   stroke="rgb(0,0,0)"
   stroke-width="40"
   stroke-linejoin="round"
   stroke-dasharray="160,120"
   d="M 11629,353 L 11629,18014"
   id="path8" />
 <path
   fill="none"
   stroke="rgb(0,0,0)"
   stroke-width="40"
   stroke-linejoin="round"
   stroke-dasharray="160,120"
   d="M 14769,18014 L 14769,353"
   id="path10" />
 <path
   fill="none"
   stroke="rgb(0,0,0)"
   stroke-width="40"
   stroke-linejoin="round"
   stroke-dasharray="160,120"
   d="M 19477,353 L 19477,18014"
   id="path12" />
 <path
   fill="none"
   stroke="rgb(0,0,0)"
   stroke-width="40"
   stroke-linejoin="round"
   stroke-dasharray="160,120"
   d="M 25756,18014 L 25756,353"
   id="path14" />
 <path
   fill="none"
   stroke="rgb(0,0,0)"
   stroke-width="40"
   stroke-linejoin="round"
   stroke-dasharray="160,120"
   d="M 28896,353 L 28896,18014"
   id="path16" />
 <path
   fill="none"
   stroke="rgb(0,69,134)"
   stroke-width="80"
   stroke-linejoin="round"
   d="M 641,13598 L 2210,13598 3780,13598 5350,13598 6920,13598 8490,13598 10059,13598 11629,13598 11629,14860 13199,14860 14769,14860 14769,13598 16339,13598 17907,13598 19477,13598 21047,13598 22617,13598 24187,13598 25756,13598 25756,14860 27326,14860 28896,14860 28896,13598 30466,13598 32036,13598"
   id="path18" />
 <path
   fill="none"
   stroke="rgb(255,66,14)"
   stroke-width="80"
   stroke-linejoin="round"
   d="M 641,15490 L 2210,15490 3780,15490 5350,15490 5350,16752 6920,16752 8490,16752 10059,16752 11629,16752 13199,16752 14769,16752 14769,15490 16339,15490 17907,15490 19477,15490 19477,16752 21047,16752 22617,16752 24187,16752 25756,16752 27326,16752 28896,16752 28896,15490 30466,15490 32036,15490"
   id="path20" />
 <path
   fill="none"
   stroke="rgb(0,69,134)"
   stroke-width="80"
   stroke-linejoin="round"
   d="M 641,4137 L 2210,4137 3780,4137 5350,4137 6920,4137 8490,4137 10059,4137 11629,4137 13199,4137 14769,4137 16339,4137 17907,4137 19477,4137 21047,4137 22617,4137 24187,4137 25756,4137 27326,4137 28896,4137 30466,4137 32036,4137"
   id="path22" />
 <path
   fill="none"
   stroke="rgb(255,66,14)"
   stroke-width="80"
   stroke-linejoin="round"
   d="M 641,9184 L 2210,9184 3780,9184 5350,9184 6920,9184 8490,9184 10059,9184 11629,9184 13199,9184 14769,9184 16339,9184 17907,9184 19477,9184 21047,9184 22617,9184 24187,9184 25756,9184 27326,9184 28896,9184 30466,9184 32036,9184"
   id="path24" />
 <path
   fill="none"
   stroke="rgb(0,0,0)"
   stroke-width="80"
   stroke-linejoin="round"
   d="M 641,12967 L 2210,11706 3780,10444 5350,9184 6920,7922 8490,6660 10059,5399 11629,4137 13199,2876 14769,1614 14769,12967 16339,11706 17907,10444 19477,9184 21047,7922 22617,6660 24187,5399 25756,4137 27326,2876 28896,1614 28896,12967 30466,11706 32036,10444"
   id="path26" />
<text
   xml:space="preserve"
   style="font-style:normal;font-variant:normal;font-weight:normal;font-stretch:normal;font-size:1058.33px;line-height:1.25;font-family:sans-serif;-inkscape-font-specification:'sans-serif, Normal';font-variant-ligatures:normal;font-variant-caps:normal;font-variant-numeric:normal;font-variant-east-asian:normal;fill:#004586;fill-opacity:1;stroke:none;stroke-width:746.707;stroke-opacity:1"
   x="1326.0929"
   y="3875.3721"
   id="text1401-0"><tspan
     sodipodi:role="line"
     id="tspan1399-9"
     x="1326.0929"
     y="3875.3721"
     style="font-style:normal;font-variant:normal;font-weight:normal;font-stretch:normal;font-size:1058.33px;font-family:sans-serif;-inkscape-font-specification:'sans-serif, Normal';font-variant-ligatures:normal;font-variant-caps:normal;font-variant-numeric:normal;font-variant-east-asian:normal;fill:#004586;fill-opacity:1;stroke:none;stroke-width:746.707;stroke-opacity:1">CV1</tspan></text><text
   xml:space="preserve"
   style="font-style:normal;font-variant:normal;font-weight:normal;font-stretch:normal;font-size:1058.33px;line-height:1.25;font-family:sans-serif;-inkscape-font-specification:'sans-serif, Normal';font-variant-ligatures:normal;font-variant-caps:normal;font-variant-numeric:normal;font-variant-east-asian:normal;fill:#ff420e;fill-opacity:1;stroke:none;stroke-width:746.707;stroke-opacity:1"
   x="1276.9364"
   y="8822.0283"
   id="text1401"><tspan
     sodipodi:role="line"
     id="tspan1399"
     x="1276.9364"
     y="8822.0283"
     style="font-style:normal;font-variant:normal;font-weight:normal;font-stretch:normal;font-size:1058.33px;font-family:sans-serif;-inkscape-font-specification:'sans-serif, Normal';font-variant-ligatures:normal;font-variant-caps:normal;font-variant-numeric:normal;font-variant-east-asian:normal;fill:#ff420e;fill-opacity:1;stroke:none;stroke-width:746.707;stroke-opacity:1">CV0</tspan></text><text
   xml:space="preserve"
   style="font-style:normal;font-variant:normal;font-weight:normal;font-stretch:normal;font-size:1058.33px;line-height:1.25;font-family:sans-serif;-inkscape-font-specification:'sans-serif, Normal';font-variant-ligatures:normal;font-variant-caps:normal;font-variant-numeric:normal;font-variant-east-asian:normal;fill:#ff420e;fill-opacity:1;stroke:none;stroke-width:746.707;stroke-opacity:1"
   x="2526.4817"
   y="15273.295"
   id="text1401-6"><tspan
     sodipodi:role="line"
     id="tspan1399-3"
     x="2526.4817"
     y="15273.295"
     style="font-style:normal;font-variant:normal;font-weight:normal;font-stretch:normal;font-size:1058.33px;font-family:sans-serif;-inkscape-font-specification:'sans-serif, Normal';font-variant-ligatures:normal;font-variant-caps:normal;font-variant-numeric:normal;font-variant-east-asian:normal;fill:#ff420e;fill-opacity:1;stroke:none;stroke-width:746.707;stroke-opacity:1">CH0</tspan></text><text
   xml:space="preserve"
   style="font-style:normal;font-variant:normal;font-weight:normal;font-stretch:normal;font-size:1058.33px;line-height:1.25;font-family:sans-serif;-inkscape-font-specification:'sans-serif, Normal';font-variant-ligatures:normal;font-variant-caps:normal;font-variant-numeric:normal;font-variant-east-asian:normal;fill:#004586;fill-opacity:1;stroke:none;stroke-width:746.707;stroke-opacity:1"
   x="2506.5308"
   y="13262.268"
   id="text1401-8"><tspan
     sodipodi:role="line"
     id="tspan1399-5"
     x="2506.5308"
     y="13262.268"
     style="font-style:normal;font-variant:normal;font-weight:normal;font-stretch:normal;font-size:1058.33px;font-family:sans-serif;-inkscape-font-specification:'sans-serif, Normal';font-variant-ligatures:normal;font-variant-caps:normal;font-variant-numeric:normal;font-variant-east-asian:normal;fill:#004586;fill-opacity:1;stroke:none;stroke-width:746.707;stroke-opacity:1">CH1</tspan></text><text
   xml:space="preserve"
   style="font-style:normal;font-variant:normal;font-weight:normal;font-stretch:normal;font-size:1058.33px;line-height:1.25;font-family:sans-serif;-inkscape-font-specification:'sans-serif, Normal';font-variant-ligatures:normal;font-variant-caps:normal;font-variant-numeric:normal;font-variant-east-asian:normal;fill:#000000;fill-opacity:1;stroke:none;stroke-width:746.707;stroke-opacity:1"
   x="12307.305"
   y="1559.9191"
   id="text1401-0-1"><tspan
     sodipodi:role="line"
     id="tspan1399-9-5"
     x="12307.305"
     y="1559.9191"
     style="font-style:normal;font-variant:normal;font-weight:normal;font-stretch:normal;font-size:1058.33px;font-family:sans-serif;-inkscape-font-specification:'sans-serif, Normal';font-variant-ligatures:normal;font-variant-caps:normal;font-variant-numeric:normal;font-variant-east-asian:normal;fill:#000000;fill-opacity:1;stroke:none;stroke-width:746.707;stroke-opacity:1">CNT</tspan></text></svg>
